<?xml version="1.0" standalone="no"?>
<!DOCTYPE svg PUBLIC "-//W3C//DTD SVG 20010904//EN"
 "http://www.w3.org/TR/2001/REC-SVG-20010904/DTD/svg10.dtd">
<svg version="1.0" xmlns="http://www.w3.org/2000/svg"
 width="512.000000pt" height="512.000000pt" viewBox="0 0 512.000000 512.000000"
 preserveAspectRatio="xMidYMid meet">

<g transform="translate(0.000000,512.000000) scale(0.100000,-0.100000)"
fill="#000000" stroke="none">
<path d="M1165 4744 c-435 -81 -465 -90 -590 -175 -113 -78 -288 -252 -348
-346 -284 -444 -300 -1014 -43 -1549 131 -273 285 -465 895 -1119 310 -332
906 -889 1208 -1128 253 -201 555 -341 858 -398 171 -32 424 -33 580 -1 288
58 485 161 680 357 121 121 214 251 245 341 22 62 53 211 95 451 33 183 30
196 -56 283 -193 196 -687 402 -961 401 -110 0 -163 -14 -204 -55 -27 -27 -35
-49 -64 -171 -87 -378 -124 -487 -175 -521 -65 -43 -182 -23 -291 49 -49 32
-1709 1684 -1796 1788 -69 81 -102 159 -103 239 0 47 5 74 18 94 35 52 154 92
542 181 102 24 124 32 151 59 41 41 55 94 55 204 1 326 -292 947 -485 1027
-44 19 -53 18 -211 -11z"/>
</g>
</svg>
